<?xml version="1.0" standalone="no"?>
<!DOCTYPE svg PUBLIC "-//W3C//DTD SVG 20010904//EN"
 "http://www.w3.org/TR/2001/REC-SVG-20010904/DTD/svg10.dtd">
<svg version="1.0" xmlns="http://www.w3.org/2000/svg"
 width="840.000000pt" height="840.000000pt" viewBox="0 0 840.000000 840.000000"
 preserveAspectRatio="xMidYMid meet">
<metadata>
Created by potrace 1.14, written by Peter Selinger 2001-2017
</metadata>
<g transform="translate(0.000000,840.000000) scale(0.100000,-0.100000)"
fill="#000000" stroke="none">
<path d="M3908 8355 c-1 -2 -41 -6 -88 -10 -124 -9 -161 -13 -200 -20 -19 -3
-51 -8 -70 -10 -67 -8 -119 -17 -210 -36 -30 -6 -62 -12 -70 -13 -8 -1 -24 -5
-35 -9 -11 -3 -31 -8 -45 -11 -14 -2 -45 -9 -70 -16 -25 -7 -47 -12 -50 -12
-3 0 -16 -5 -30 -10 -14 -6 -38 -12 -55 -15 -16 -3 -37 -9 -46 -14 -9 -4 -27
-10 -40 -13 -38 -8 -234 -79 -359 -132 -179 -74 -480 -230 -570 -294 -16 -11
-31 -20 -34 -20 -6 0 -241 -161 -269 -185 -7 -6 -43 -34 -81 -64 -77 -60 -111
-88 -138 -113 -10 -10 -20 -18 -23 -18 -17 0 -335 -322 -434 -440 -12 -14 -31
-36 -42 -50 -12 -14 -40 -50 -63 -80 -22 -30 -49 -64 -59 -75 -28 -31 -217
-314 -217 -325 0 -5 -5 -10 -11 -10 -5 0 -7 -4 -4 -10 3 -5 3 -10 -2 -10 -4 0
-19 -21 -33 -47 -13 -27 -27 -50 -30 -53 -11 -10 -160 -310 -154 -310 4 0 1
-6 -5 -13 -15 -19 -112 -252 -125 -302 -2 -5 -6 -17 -9 -25 -30 -75 -82 -248
-73 -243 8 5 8 3 0 -8 -11 -14 -42 -117 -50 -168 -3 -14 -8 -35 -11 -46 -8
-23 -9 -27 -17 -79 -3 -21 -8 -41 -10 -45 -2 -3 -7 -26 -10 -51 -3 -25 -8 -56
-10 -70 -6 -32 -24 -162 -31 -220 -20 -164 -27 -624 -12 -785 5 -44 8 -87 9
-95 0 -14 26 -211 32 -255 16 -101 19 -117 32 -167 3 -13 7 -32 9 -43 9 -48
17 -84 31 -135 8 -30 17 -66 20 -80 2 -14 9 -36 14 -50 4 -14 18 -59 30 -100
12 -41 25 -84 30 -95 5 -11 23 -60 40 -109 18 -49 42 -109 53 -135 12 -25 22
-50 23 -56 8 -47 265 -535 286 -543 4 -2 8 -8 8 -13 0 -11 136 -215 162 -243
10 -11 18 -23 18 -26 0 -4 9 -18 20 -31 11 -13 23 -28 28 -34 165 -209 293
-350 468 -515 99 -93 251 -220 263 -220 6 0 11 -4 11 -8 0 -5 51 -45 112 -89
173 -123 211 -147 406 -261 126 -73 469 -233 562 -262 14 -5 57 -20 95 -35 39
-14 77 -28 85 -30 8 -2 53 -16 100 -30 47 -15 96 -28 110 -31 14 -3 50 -12 80
-20 53 -16 67 -19 120 -29 14 -3 36 -7 50 -10 14 -3 39 -8 55 -10 17 -3 37 -8
45 -10 8 -2 35 -6 60 -9 25 -3 56 -8 70 -11 14 -3 48 -8 75 -11 28 -3 61 -7
75 -10 160 -25 839 -25 1000 0 14 3 48 7 75 10 28 3 59 8 70 10 23 4 115 19
130 20 41 5 208 41 323 70 219 56 650 214 752 277 20 12 64 31 69 29 2 -1 7 2
10 7 3 4 31 20 61 36 102 51 212 116 330 194 36 24 74 49 84 56 88 58 338 253
344 269 2 4 10 8 18 8 8 0 14 7 14 15 0 8 4 15 9 15 18 0 247 222 339 329 26
29 56 63 67 75 12 11 39 44 60 71 22 28 48 59 57 70 10 11 42 54 72 95 30 41
59 80 64 85 5 6 11 15 13 20 2 6 34 56 72 112 37 56 67 107 67 113 0 5 5 10
10 10 6 0 10 7 10 15 0 8 4 15 8 15 4 0 15 15 24 33 8 17 53 106 100 197 46
91 89 179 96 195 6 17 23 57 37 90 14 33 33 80 42 105 8 25 20 56 26 70 6 14
11 27 12 30 1 4 19 61 31 100 3 8 6 17 6 20 0 3 9 30 20 60 29 83 88 328 103
425 2 11 4 20 5 20 1 0 3 11 5 25 2 14 6 39 8 55 41 246 52 381 51 685 0 135
-3 279 -7 320 -4 41 -9 102 -12 135 -2 33 -7 76 -11 95 -3 19 -8 46 -9 60 -21
149 -26 174 -35 184 -5 5 -6 14 -4 21 8 19 -70 325 -122 480 -26 77 -47 146
-47 153 0 6 -4 12 -9 12 -4 0 -8 8 -8 18 0 10 -3 22 -7 26 -5 4 -8 11 -9 14
-2 17 -101 245 -135 312 -15 30 -28 60 -29 65 -1 6 -5 15 -10 20 -4 6 -23 37
-40 70 -70 130 -258 428 -280 445 -3 3 -20 26 -38 51 -107 158 -348 424 -542
599 -40 36 -80 73 -88 83 -9 9 -20 17 -23 17 -4 0 -20 12 -36 28 -15 15 -43
38 -62 52 -48 35 -144 108 -157 119 -6 5 -58 40 -115 78 -92 61 -123 81 -204
130 -11 7 -36 20 -55 29 -19 9 -37 19 -40 23 -3 4 -18 14 -35 22 -16 8 -59 30
-95 49 -36 19 -67 34 -70 35 -3 1 -25 11 -49 23 -25 12 -50 22 -57 22 -7 0
-14 4 -16 8 -1 4 -52 27 -113 51 -60 23 -119 47 -130 51 -28 13 -260 89 -282
93 -10 2 -25 7 -33 10 -14 6 -82 24 -122 33 -10 2 -26 6 -35 8 -73 19 -267 55
-271 51 -3 -3 -10 -1 -16 4 -6 5 -38 11 -71 15 -33 3 -71 9 -85 11 -14 3 -52
8 -85 10 -33 3 -73 7 -90 10 -33 7 -691 16 -697 10z"/>
</g>
</svg>
