<svg xmlns="http://www.w3.org/2000/svg" width="16.232" height="16.232" viewBox="0 0 16.232 16.232">
    <g id="Page-1" transform="translate(0 0)">
        <g id="Dribbble-Light-Preview" transform="translate(0)">
            <g id="icons">
                <path id="profile_round-_1342_" d="M97.442,2013.609H86.79a.808.808,0,0,1-.78-1.086,6.819,6.819,0,0,1,12.212,0,.808.808,0,0,1-.78,1.086m-8.64-9.739a3.314,3.314,0,1,1,3.314,3.246,3.284,3.284,0,0,1-3.314-3.246m11.394,9.444a7.724,7.724,0,0,0-4.966-5.651,4.816,4.816,0,0,0,1.8-4.547,4.98,4.98,0,0,0-9.884.755A4.819,4.819,0,0,0,89,2007.662a7.724,7.724,0,0,0-4.967,5.651,1.623,1.623,0,0,0,1.631,1.919h12.9a1.622,1.622,0,0,0,1.631-1.919" transform="translate(-84 -1999)" fill="#707070" fill-rule="evenodd"/>
            </g>
        </g>
    </g>
</svg>
