<svg xmlns="http://www.w3.org/2000/svg" width="16.233" height="16.547" viewBox="0 0 16.233 16.547">
    <path id="Path_14" d="M2.406,7.531l7.3,4.22a.812.812,0,0,0,.812,0l7.3-4.22a.81.81,0,0,0,0-1.4l-7.3-4.212a.812.812,0,0,0-.812,0l-7.3,4.212a.81.81,0,0,0,0,1.4Zm7.71-3.944L15.8,6.833l-5.681,3.246L4.435,6.833Zm6.9,5.819-6.9,3.92-6.9-3.952a.811.811,0,1,0-.812,1.4L9.71,15a.812.812,0,0,0,.812,0l7.3-4.22a.811.811,0,1,0-.812-1.4Zm0,3.246-6.9,3.92-6.9-3.952a.811.811,0,1,0-.812,1.4l7.3,4.22a.812.812,0,0,0,.812,0l7.3-4.22a.811.811,0,1,0-.812-1.4Z" transform="translate(-1.999 -1.806)" fill="#707070"/>
</svg>
